<svg width="35" height="35" fill="none" xmlns="http://www.w3.org/2000/svg"><path d="M17.5 13.246a4.256 4.256 0 100 8.51 4.256 4.256 0 000-8.51zm17.036-4.204a11.203 11.203 0 00-.72-3.877 6.863 6.863 0 00-3.98-3.98 11.203 11.203 0 00-3.878-.721c-2.213-.12-2.865-.12-8.458-.12-5.594 0-6.245 0-8.459.12a11.203 11.203 0 00-3.877.72 6.863 6.863 0 00-3.98 3.98 11.203 11.203 0 00-.721 3.878c-.12 2.213-.12 2.866-.12 8.459s0 6.245.12 8.458a11.77 11.77 0 00.72 3.895 6.76 6.76 0 001.562 2.401 6.673 6.673 0 002.419 1.562c1.24.467 2.552.711 3.877.72 2.213.12 2.865.12 8.459.12 5.593 0 6.245 0 8.458-.12a11.202 11.202 0 003.877-.72 6.672 6.672 0 002.42-1.562 6.758 6.758 0 001.56-2.401c.468-1.246.712-2.565.721-3.895.12-2.213.12-2.865.12-8.458 0-5.594 0-6.246-.12-8.459zM30.18 22.768a9.832 9.832 0 01-.67 3.088 6.621 6.621 0 01-3.654 3.654 9.828 9.828 0 01-3.105.6h-10.5a9.829 9.829 0 01-3.106-.6 6.02 6.02 0 01-2.247-1.475 6.022 6.022 0 01-1.407-2.179 9.42 9.42 0 01-.583-3.105v-10.5a9.42 9.42 0 01.583-3.106c.316-.85.82-1.619 1.475-2.247a6.16 6.16 0 012.18-1.407 9.831 9.831 0 013.105-.6h10.5a9.83 9.83 0 013.105.6c.85.316 1.62.82 2.248 1.475a6.022 6.022 0 011.406 2.18 9.83 9.83 0 01.6 3.105v5.25c0 3.534.121 3.894.07 5.25v.017zm-2.745-12.765a4.084 4.084 0 00-2.42-2.42 6.862 6.862 0 00-2.367-.377H12.353a6.87 6.87 0 00-2.368.447 4.083 4.083 0 00-2.42 2.333 7.326 7.326 0 00-.36 2.368v10.294c.018.808.168 1.608.447 2.367a4.083 4.083 0 002.419 2.42c.732.269 1.502.42 2.282.446h10.294a6.861 6.861 0 002.367-.447 4.082 4.082 0 002.42-2.419 6.863 6.863 0 00.445-2.367V12.354a6.46 6.46 0 00-.446-2.368v.017zM17.5 24.055a6.536 6.536 0 01-6.537-6.554 6.554 6.554 0 116.537 6.553zm6.862-11.822a1.545 1.545 0 010-3.07 1.544 1.544 0 010 3.07z" fill="#000"/></svg>