<svg width="36" height="36" fill="none" xmlns="http://www.w3.org/2000/svg"><path d="M33.3 8.325C27.9 0 16.877-2.475 8.327 2.7 0 7.875-2.7 19.125 2.7 27.45l.45.675-1.8 6.75 6.75-1.8.675.45C11.7 35.1 14.85 36 18 36c3.375 0 6.75-.9 9.675-2.7C36 27.9 38.476 16.875 33.3 8.325zM28.577 25.65c-.9 1.35-2.025 2.25-3.6 2.475-.9 0-2.025.45-6.525-1.35-3.825-1.8-6.975-4.725-9.225-8.1-1.35-1.575-2.025-3.6-2.25-5.625 0-1.8.675-3.375 1.8-4.5.45-.45.9-.675 1.35-.675h1.125c.45 0 .9 0 1.125.9.45 1.125 1.575 3.825 1.575 4.05.225.225.225.675 0 .9.225.45 0 .9-.225 1.125-.225.225-.45.675-.675.9-.45.225-.675.675-.45 1.125a25.9 25.9 0 003.15 3.825c1.35 1.125 2.7 2.025 4.275 2.7.45.225.9.225 1.125-.225.225-.45 1.35-1.575 1.8-2.025.45-.45.675-.45 1.125-.225l3.6 1.8c.45.225.9.45 1.125.675.225.675.225 1.575-.225 2.25z" fill="#000"/></svg>